<mxfile host="app.diagrams.net" modified="2022-10-17T12:40:07.303Z" agent="5.0 (X11; Linux x86_64) AppleWebKit/537.36 (KHTML, like Gecko) Chrome/105.0.0.0 Safari/537.36" etag="tE6TEmzUwATZJpj-_0UD" version="20.4.1" type="github">
  <diagram id="C5RBs43oDa-KdzZeNtuy" name="Page-1">
    <mxGraphModel dx="1372" dy="1950" grid="1" gridSize="10" guides="1" tooltips="1" connect="1" arrows="1" fold="1" page="1" pageScale="1" pageWidth="827" pageHeight="1169" math="0" shadow="0">
      <root>
        <mxCell id="WIyWlLk6GJQsqaUBKTNV-0" />
        <mxCell id="WIyWlLk6GJQsqaUBKTNV-1" parent="WIyWlLk6GJQsqaUBKTNV-0" />
        <mxCell id="40r1Cs8ADjgpQ7wW2QsW-3" value="" style="group" vertex="1" connectable="0" parent="WIyWlLk6GJQsqaUBKTNV-1">
          <mxGeometry x="40" y="-20" width="460" height="490" as="geometry" />
        </mxCell>
        <mxCell id="40r1Cs8ADjgpQ7wW2QsW-26" value="" style="edgeStyle=orthogonalEdgeStyle;rounded=0;orthogonalLoop=1;jettySize=auto;html=1;fontColor=#FF2121;" edge="1" parent="40r1Cs8ADjgpQ7wW2QsW-3" source="40r1Cs8ADjgpQ7wW2QsW-4" target="40r1Cs8ADjgpQ7wW2QsW-6">
          <mxGeometry relative="1" as="geometry" />
        </mxCell>
        <mxCell id="40r1Cs8ADjgpQ7wW2QsW-4" value="counter = 1&lt;br&gt;hasIncremented = {0x4f...: True}" style="whiteSpace=wrap;html=1;" vertex="1" parent="40r1Cs8ADjgpQ7wW2QsW-3">
          <mxGeometry x="286.0975609756098" y="160" width="134.63414634146343" height="60" as="geometry" />
        </mxCell>
        <mxCell id="40r1Cs8ADjgpQ7wW2QsW-22" value="" style="edgeStyle=orthogonalEdgeStyle;rounded=0;orthogonalLoop=1;jettySize=auto;html=1;fontColor=#FF2121;entryX=0.25;entryY=0;entryDx=0;entryDy=0;" edge="1" parent="40r1Cs8ADjgpQ7wW2QsW-3" source="40r1Cs8ADjgpQ7wW2QsW-13" target="40r1Cs8ADjgpQ7wW2QsW-4">
          <mxGeometry relative="1" as="geometry" />
        </mxCell>
        <mxCell id="40r1Cs8ADjgpQ7wW2QsW-13" value="User 0x4f... -&amp;gt; Incrementer.inc()" style="whiteSpace=wrap;html=1;rounded=1;sketch=0;glass=0;" vertex="1" parent="40r1Cs8ADjgpQ7wW2QsW-3">
          <mxGeometry x="10" y="115" width="190" height="45" as="geometry" />
        </mxCell>
        <mxCell id="40r1Cs8ADjgpQ7wW2QsW-23" value="" style="edgeStyle=orthogonalEdgeStyle;rounded=0;orthogonalLoop=1;jettySize=auto;html=1;fontColor=#FF2121;entryX=0.25;entryY=0;entryDx=0;entryDy=0;" edge="1" parent="40r1Cs8ADjgpQ7wW2QsW-3" source="40r1Cs8ADjgpQ7wW2QsW-20" target="40r1Cs8ADjgpQ7wW2QsW-6">
          <mxGeometry relative="1" as="geometry" />
        </mxCell>
        <mxCell id="40r1Cs8ADjgpQ7wW2QsW-20" value="User 0x3k... -&amp;gt; Incrementer.inc()" style="whiteSpace=wrap;html=1;rounded=1;sketch=0;glass=0;" vertex="1" parent="40r1Cs8ADjgpQ7wW2QsW-3">
          <mxGeometry x="10" y="215" width="190" height="45" as="geometry" />
        </mxCell>
        <mxCell id="40r1Cs8ADjgpQ7wW2QsW-34" style="edgeStyle=orthogonalEdgeStyle;rounded=0;orthogonalLoop=1;jettySize=auto;html=1;entryX=0.25;entryY=0;entryDx=0;entryDy=0;fontColor=#FF2121;" edge="1" parent="40r1Cs8ADjgpQ7wW2QsW-3" source="40r1Cs8ADjgpQ7wW2QsW-21" target="40r1Cs8ADjgpQ7wW2QsW-24">
          <mxGeometry relative="1" as="geometry" />
        </mxCell>
        <mxCell id="40r1Cs8ADjgpQ7wW2QsW-21" value="&lt;font color=&quot;#ff2121&quot;&gt;User 0x4f... -&amp;gt; Incrementer.inc()&lt;/font&gt;" style="whiteSpace=wrap;html=1;rounded=1;sketch=0;glass=0;" vertex="1" parent="40r1Cs8ADjgpQ7wW2QsW-3">
          <mxGeometry x="10" y="325" width="190" height="45" as="geometry" />
        </mxCell>
        <mxCell id="40r1Cs8ADjgpQ7wW2QsW-6" value="counter = 2&lt;br&gt;hasIncremented = {0x4f...: True; 0x1k...:True}" style="whiteSpace=wrap;html=1;" vertex="1" parent="40r1Cs8ADjgpQ7wW2QsW-3">
          <mxGeometry x="283.2926829268293" y="260" width="140.2439024390244" height="70" as="geometry" />
        </mxCell>
        <mxCell id="40r1Cs8ADjgpQ7wW2QsW-33" value="" style="edgeStyle=orthogonalEdgeStyle;rounded=0;orthogonalLoop=1;jettySize=auto;html=1;fontColor=#FF2121;" edge="1" parent="40r1Cs8ADjgpQ7wW2QsW-3" source="40r1Cs8ADjgpQ7wW2QsW-32" target="40r1Cs8ADjgpQ7wW2QsW-4">
          <mxGeometry relative="1" as="geometry" />
        </mxCell>
        <mxCell id="40r1Cs8ADjgpQ7wW2QsW-32" value="&lt;b&gt;Initial State&lt;/b&gt;&lt;br&gt;counter = 0&lt;br&gt;hasIncremented = {}" style="whiteSpace=wrap;html=1;" vertex="1" parent="40r1Cs8ADjgpQ7wW2QsW-3">
          <mxGeometry x="286.0975609756098" y="60" width="134.63414634146343" height="60" as="geometry" />
        </mxCell>
        <mxCell id="40r1Cs8ADjgpQ7wW2QsW-24" value="counter = 2&lt;br&gt;hasIncremented = {0x4f...: True; 0x1k...:True}" style="whiteSpace=wrap;html=1;" vertex="1" parent="40r1Cs8ADjgpQ7wW2QsW-3">
          <mxGeometry x="283.29268292682923" y="370" width="140.2439024390244" height="70" as="geometry" />
        </mxCell>
        <mxCell id="40r1Cs8ADjgpQ7wW2QsW-25" value="" style="edgeStyle=orthogonalEdgeStyle;rounded=0;orthogonalLoop=1;jettySize=auto;html=1;fontColor=#FF2121;" edge="1" parent="40r1Cs8ADjgpQ7wW2QsW-3" source="40r1Cs8ADjgpQ7wW2QsW-6" target="40r1Cs8ADjgpQ7wW2QsW-24">
          <mxGeometry relative="1" as="geometry" />
        </mxCell>
      </root>
    </mxGraphModel>
  </diagram>
</mxfile>
